<svg xmlns="http://www.w3.org/2000/svg" width="63.641" height="75" viewBox="0 0 63.641 75">
  <path id="greensock-svgrepo-com" d="M38.276,74.953a5.492,5.492,0,0,1-2.569-1.143,2.2,2.2,0,0,1-.62-1.525,4.778,4.778,0,0,1,.758-2.18,6.891,6.891,0,0,0,.655-1.457,11.054,11.054,0,0,1,.46-1.306l.285-.664.075-4.5c.041-2.475.116-4.78.166-5.131a15.474,15.474,0,0,1,.792-3.013l.263-.655-.385-.229a8.737,8.737,0,0,1-1.817-1.9A8.664,8.664,0,0,0,30.364,48.3q-1.313-.124-2.631-.179c-3.922-.182-6.158-1-8.175-2.982a9.037,9.037,0,0,1-2.609-5.751c-.432-3.439-.908-5.209-1.785-6.641a6.375,6.375,0,0,0-.742-.987l-.357-.354-.783.5c-.435.276-1.031.636-1.325.8A26,26,0,0,0,9.148,34.5a55.8,55.8,0,0,0-5.879,4.893c-.589.589-.9.836-1.024.821-.9-.135-.207-4.009,1.24-6.922a24.918,24.918,0,0,1,8.62-9.557,85.2,85.2,0,0,1,10.011-5.491,115.8,115.8,0,0,1,12.561-4.395,4.818,4.818,0,0,0,1.494-.6,3.71,3.71,0,0,1,2.133-.72,1.77,1.77,0,0,0,1.331-.439,1.467,1.467,0,0,1,1.685-.251l.482.172.586-.4.589-.4.846.019a2.714,2.714,0,0,0,1.212-.144c.357-.157.37-.175.47-.767a6.986,6.986,0,0,0,.116-2.675A31.04,31.04,0,0,1,45.6,1.923c.185-.833.3-1,.924-1.306A6.267,6.267,0,0,1,49.753.028C51.707.028,52.7.291,53.43,1c.664.645.777,2.13.429,5.638a22.379,22.379,0,0,0-.172,3.9c.031.849.085,1.641.116,1.757.053.2.1.216.811.232a2.4,2.4,0,0,1,1.475.392A2.588,2.588,0,0,1,57.3,13.932c.019.063.125.066.326.009a.861.861,0,0,1,.968.341c.16.2.26.244.636.244.5,0,.677.119,1.093.733a1.873,1.873,0,0,0,.771.626,5.289,5.289,0,0,1,1.973,2.049,5.063,5.063,0,0,1,.316,3.615c-.125.439-.125.454.132.883a4.175,4.175,0,0,1,.523,2.988l-.128.564.37.366c1.826,1.826,1.557,4.8-.673,7.455a4.269,4.269,0,0,0-.62,1A7.286,7.286,0,0,1,61.421,37.4l-.639.658h-.67a5.274,5.274,0,0,1-2.146-.517c-.235-.122-.251-.119-.2.031A38.5,38.5,0,0,1,58.4,41.5a22.918,22.918,0,0,1-.125,5.729,8.927,8.927,0,0,1-.93,2.459,1.111,1.111,0,0,0-.207.952,6.569,6.569,0,0,1-.36,2.547,8.746,8.746,0,0,0-.52,1.71c-.063.382-.063.385.207.385.36,0,.548.213.548.623,0,.188-.157,1.171-.351,2.193a22.933,22.933,0,0,0-.576,5.936c-.009,2.847-.013,2.825.639,3.248l1.453.946a19.953,19.953,0,0,0,4,2.055c2.045.808,2.327,1.015,2.327,1.7a.752.752,0,0,1-.313.661c-.789.761-2.33.93-5.441.6q-2.421-.23-4.855-.235c-4.276-.063-4.908-.21-5.466-1.278-.319-.611-.263-1.41.185-2.719q.3-.864.511-1.754a9.466,9.466,0,0,0-.589-5.024l-.579-1.623c-.583-1.654-.9-4.68-.551-5.363.063-.125.169-.157.457-.138l.373.031.3-.639a5.184,5.184,0,0,1,1.19-1.529l.893-.9-.044-.57a18.142,18.142,0,0,0-.865-3.211,3.845,3.845,0,0,0-.451.611,11.666,11.666,0,0,1-2.4,2.512c-.294.2-.539.429-.539.507a3.266,3.266,0,0,1-.63,1.425c-.332.448-.354.511-.3.908a14.791,14.791,0,0,1-.326,3.383,10.907,10.907,0,0,1-.8,2.083,25.1,25.1,0,0,0-1.644,4.041,17.336,17.336,0,0,0-.213,2.108,11.333,11.333,0,0,1-.188,1.807,1.245,1.245,0,0,0-.006.771,6.972,6.972,0,0,1,.085,1.284,5.9,5.9,0,0,0,.219,1.767A5.072,5.072,0,0,1,42.739,74a.821.821,0,0,1-.52.564,8.733,8.733,0,0,1-3.944.385Zm2.976-1a1.039,1.039,0,0,0,.789-.824,4.25,4.25,0,0,0-.273-.958,18.341,18.341,0,0,1-.8-2.938c0-.169.013-.172.266-.038l.266.141L41.5,69a4.153,4.153,0,0,0-.2-.924c-.232-.7-.263-.714-1.735-.8l-1.009-.053-.36.354a3.226,3.226,0,0,0-.529.689c-.163.323-.226.8-.119.908a1.371,1.371,0,0,0,.532-.063,2.365,2.365,0,0,1,.486-.091,6.464,6.464,0,0,1-.6.473c-1.472,1.09-1.983,1.767-1.983,2.622,0,.9.833,1.591,2.155,1.8A12.217,12.217,0,0,0,41.252,73.957Zm19.9-1.457c.366-.445.323-.893-.144-1.41A3.831,3.831,0,0,0,60.1,70.4a11.487,11.487,0,0,1-1.027-.611c-.269-.188-1.134-.689-1.917-1.128q-.842-.45-1.651-.958l-.219-.172V64.165c0-3.32-.006-3.361-.182-3.314a16,16,0,0,1-4.078.307l-1.939-.031.276.683a13.8,13.8,0,0,1,.792,5.031,3.755,3.755,0,0,1-.229,1.541q-.142.388-.273.78c-.034.11.1.188.608.338a8.187,8.187,0,0,0,1.212.257l.558.056-.056.567A2.855,2.855,0,0,0,52.14,71.9c.091.119.467.163,2.161.244,1.291.063,2.688.194,3.787.357.955.141,1.983.263,2.287.266.507.009.564-.009.78-.269ZM41.571,66.765a7.019,7.019,0,0,0,.147-1.475A9.827,9.827,0,0,1,43,60.313a13.012,13.012,0,0,0,1.338-5.24l-.025-.8-.335.332c-.711.7-.222-.407.617-1.4a3.387,3.387,0,0,0,.962-1.839c.044-.269.147-.407.564-.72a10.58,10.58,0,0,0,3.455-4.583c.175-.442.62-1.942.987-3.339a17.41,17.41,0,0,1,1.378-4.175c.125-.185.172-.213.141-.091a18.14,18.14,0,0,0-.407,2c-.1.6-.282,1.767-.4,2.594a16.52,16.52,0,0,1-.818,3.583l-.219.558.592,1.519a12.04,12.04,0,0,1,.946,3.774l.031.6-.482.1a2.456,2.456,0,0,0-1.557.984c-.426.6-.652,1.09-.542,1.2a6.727,6.727,0,0,0,1.331.235,12.457,12.457,0,0,0,2.879.041,17.951,17.951,0,0,0,1.814-.175c.132-.047.26-.316.482-1.012a7.671,7.671,0,0,0,.545-3.289l-.05-.993.257-.329a7.87,7.87,0,0,0,1.253-3.727,35.272,35.272,0,0,0-.987-9.591,16.717,16.717,0,0,1-.532-3.414v-.648l-.6.063a23.2,23.2,0,0,1-6.352-.157,30.908,30.908,0,0,1-3.54-1.031l-.373-.166L45.3,31.6a6.557,6.557,0,0,1-.125.708c-.072.266-.044.319.41.771.564.564.739.865.739,1.259,0,.235-.141.432-.824,1.15A10.756,10.756,0,0,1,43.867,36.9l-.8.539-.332,1.178c-1.234,4.354-1.466,8.3-.658,11.132l.2.708-.392.486a12.083,12.083,0,0,0-2.468,4.041c-.025.157-.15.673-.276,1.15a26.973,26.973,0,0,0-.664,4.905q-.12,2.413-.326,4.821l-.053.476.611.188a9.73,9.73,0,0,0,1.15.273,5.045,5.045,0,0,0,1.717-.025Zm11.881-6.728a5.912,5.912,0,0,0,1.989-.345,1.142,1.142,0,0,0,.188-.564l.053-.464-.752.166a16.06,16.06,0,0,1-1.807.244,29.676,29.676,0,0,1-4.329-.125c-.476-.072-.479-.069-.323.554.116.47.141.482,1.394.579a27.937,27.937,0,0,0,3.587-.047Zm-.8-2.13a14.481,14.481,0,0,0,3.1-.532.65.65,0,0,0,.226-.435l.113-.652.056-.31-.3.063a19.2,19.2,0,0,1-4.448.37,7.646,7.646,0,0,1-2.756-.2,1.888,1.888,0,0,0-.645-.15,2.811,2.811,0,0,0-.016,1.237c.047.3.094.348.392.432a14.033,14.033,0,0,0,4.279.172ZM29.947,46.872c3.132-.9,7.229-3.561,10.578-6.882,1.1-1.09,1.222-1.244,1.369-1.723l.2-.623c.022-.05-.175-.141-.432-.2-.677-.163-1.181-.545-1.187-.9,0-.207-.125-.413-.47-.8a2.3,2.3,0,0,1-.792-1.557l-.05-.495-.677-.495a35.34,35.34,0,0,0-3.22-1.77q-1.662-.813-3.254-1.757A6.438,6.438,0,0,1,29.505,26.7a1.068,1.068,0,0,0-.235-.432c-.1,0-2.85,2.662-4.028,3.906a36.589,36.589,0,0,0-6.152,8.175c-.313.611-.658,1.331-.758,1.6l-.188.492.229.814a10.421,10.421,0,0,0,.626,1.6,6.555,6.555,0,0,0,3.208,3.179,10.861,10.861,0,0,0,5.482,1.056,7.348,7.348,0,0,0,2.258-.219ZM5.224,36.15a56.588,56.588,0,0,1,8.376-5.9C15.877,28.9,24.666,24.5,28.716,22.693c.733-.329,1.4-.63,1.472-.673a4.577,4.577,0,0,0,.473-1.156c.865-2.722,1.291-3.261,2.844-3.612.2-.044.244-.106.244-.31A4.425,4.425,0,0,1,34.2,15.4c.157-.282.16-.3.016-.257-.085.028-.6.175-1.137.332a75.265,75.265,0,0,0-19.608,8.589C7.46,27.89,4.008,32.463,3,37.942l-.075.407.727-.724c.4-.4,1.106-1.062,1.569-1.472Zm55.37,1.034a5.918,5.918,0,0,0,1.87-2.825,2.544,2.544,0,0,1,.57-1.059A7.093,7.093,0,0,0,64.7,29.215c0-1.942-1.093-2.691-2.7-1.854a.989.989,0,0,1-.4.15c-.091-.091.366-.532.908-.877.73-.47.868-.752.868-1.773a3.972,3.972,0,0,0-.7-2.3c-.219-.329-.307-.554-.273-.683l.226-.827a4.282,4.282,0,0,0-.276-3.123,3.369,3.369,0,0,0-2.8-1.886l-.7-.053.42.46A5.531,5.531,0,0,1,60.854,20.9c-.122.727-.241.877-.949,1.165l-.407.166.047.561a4.916,4.916,0,0,1-.664,2.835,6.151,6.151,0,0,0-.492,1.237,3.1,3.1,0,0,0,1.513.764l.626.15-.392.125c-.5.166-.62.395-.623,1.244a2.8,2.8,0,0,0,.68,1.93,2.675,2.675,0,0,1,.451.965c.047.348.031.37-.251.473a4.761,4.761,0,0,1-.971.157c-1.15.072-1.237.1-1.748.6-.47.448-.479.473-.479.962a6.6,6.6,0,0,0,.413,2.205,5.782,5.782,0,0,0,1.817.886,1.7,1.7,0,0,0,1.168-.138Zm-16.946-.921a7.845,7.845,0,0,0,1.666-1.676c.2-.307.216-.366.113-.617a5.833,5.833,0,0,0-1.914-1.713,4.583,4.583,0,0,0-1.309-.376l-.771-.107-.482-.6a14.954,14.954,0,0,1-2.324-4.016,9.2,9.2,0,0,0-2.233-3.389,4.464,4.464,0,0,1-.645-.673c.038,0,.5.229,1.043.511.9.473,1.005.507,1.413.457,1.457-.175,2.735-1.851,3.208-4.2a4.927,4.927,0,0,1,.683-1.745c.013-.016.57.36,1.237.836,1.673,1.19,2.042,1.366,2.991,1.4a6.54,6.54,0,0,0,2.1-.294,20.105,20.105,0,0,1,6.578-.6,12.353,12.353,0,0,1,3.132.958c.943.439,1.124.464,1.431.194.251-.219.254-.251.251-1.071a5.376,5.376,0,0,0-1.128-3.3,9.272,9.272,0,0,0-2.255-1.569q-.516-.271-1.024-.558c-.445-.26-.968-.229-2.356.138a5.819,5.819,0,0,1-3.893-.056,5.472,5.472,0,0,0-3.2-.166A13.535,13.535,0,0,1,42.4,13.9q-.515-.142-1.018-.326a5.548,5.548,0,0,0-2.575-.094A4.744,4.744,0,0,0,34.99,16.21c-.263.7-.229,1.031.132,1.256a3.4,3.4,0,0,1,1.3,1.691c0,.031-.175-.128-.392-.354a2.1,2.1,0,0,0-1.566-.786,1.942,1.942,0,0,0-1.723,1.134,12.046,12.046,0,0,0-.417,1.316,7.349,7.349,0,0,1-1.291,2.794A1.992,1.992,0,0,0,30.58,25.3c.514,2.252,1.4,3.167,5.134,5.281a35.512,35.512,0,0,1,3.7,2.283c.561.417.576.439.526.761A2.4,2.4,0,0,0,41.214,35.8c.235.163.382.335.382.448,0,.226.614.532,1.074.532.251,0,.454-.106.98-.52ZM58.73,32.147c1.422.041,1.5-.06.736-.943a2.367,2.367,0,0,1-.72-2.487l.116-.319-.5-.244a3.655,3.655,0,0,0-.511-.226q-.133.483-.247.971a22.383,22.383,0,0,0-.41,3.508c0,.072.119.041.329-.088.288-.172.439-.194,1.206-.172Zm-4.755-.078c.855-.047,1.742-.113,1.973-.144l.42-.056.053-1.416a11.5,11.5,0,0,1,1.231-5.081,6.439,6.439,0,0,0,.752-3.4c-.056-.382-.078-.407-.589-.63a13.454,13.454,0,0,0-2.926-.792,23.441,23.441,0,0,0-4.871.141c-.439.081-1.244.251-1.785.379a4.162,4.162,0,0,1-3.057-.172,7.451,7.451,0,0,1-2.246-1.4c-.473-.442-.517-.464-.645-.316a2.556,2.556,0,0,0-.179,1.153,4.288,4.288,0,0,1-.689,2.434,2.606,2.606,0,0,0-.269.5,8.625,8.625,0,0,0,.827.927c1.563,1.629,2.33,2.049,3.565,1.955.407-.031.689-.019.689.031a4.788,4.788,0,0,1-1.131.9c-.15.078-.188.166-.163.354l.188,1.278c.113.739.2,1.074.313,1.175a17.052,17.052,0,0,0,2.756,1.416,8.816,8.816,0,0,0,2.894.774,14.087,14.087,0,0,0,2.888,0ZM43.858,30.731a10.827,10.827,0,0,0-.219-1.572c-.2-1.115-.307-1.519-.429-1.623-.094-.075-.542-.4-1-.724A17.237,17.237,0,0,1,40.528,25.4l-.849-.827-.445.235-.482.26a2.193,2.193,0,0,0,.2.551c.125.291.395,1.012.6,1.6a10.449,10.449,0,0,0,1.93,3.6l.388.5.72.113a7.637,7.637,0,0,1,.912.185c.175.066.2.038.251-.36a2.365,2.365,0,0,1,.106-.52Zm15.5-15.223c.626-.06.733-.157.46-.432a.854.854,0,0,0-.877-.038c-.213.1-.257.075-.586-.282-.345-.382-.363-.392-.8-.338-.392.047-.451.031-.5-.128a3.377,3.377,0,0,0-.564-.708,2.637,2.637,0,0,0-1.018-.72A1.9,1.9,0,0,0,53.568,13c-2.089,1.143-2,1.131-4.019.617A16.037,16.037,0,0,1,45.8,12.344a5.1,5.1,0,0,0-1.857-.626,1.478,1.478,0,0,0-1.3.439l-.251.207.226.4c.32.567.288.6-.194.188a2.782,2.782,0,0,0-1.519-.736,2.64,2.64,0,0,0-1.212.526c-.028.044.229.1.567.135a4.327,4.327,0,0,1,1.178.291,6.126,6.126,0,0,0,2.08.564,7.958,7.958,0,0,0,2.594-.166c.091-.078.36-.091.927-.047a12.945,12.945,0,0,1,2.828.6,4.874,4.874,0,0,0,2.973-.081A12.957,12.957,0,0,1,54.4,13.7c.5-.053.6-.031,1.378.323a9.775,9.775,0,0,1,2.28,1.253c.366.313.407.323,1.294.238Zm-6.979-2.143.745-.388-.016-.767q-.018-.776-.069-1.551l-.053-.786-.745.576a3.556,3.556,0,0,1-1.062.636,16,16,0,0,1-3.433-.132,7.235,7.235,0,0,1-.912-.811l-.689-.689-.009.407a6.094,6.094,0,0,1-.075.839c-.069.432-.063.445.407,1.043a5.242,5.242,0,0,1,.476.664,15.055,15.055,0,0,0,4.329,1.347A2.611,2.611,0,0,0,52.378,13.365Zm-1.416-2.785c.883-.169,1.316-.808,1.638-2.421a22.327,22.327,0,0,0,.354-5.629c-.147-1.046-1.312-1.519-3.558-1.444-1.391.047-1.967.185-2.44.586-.294.251-.3.273-.429,1.431A14.7,14.7,0,0,0,47.278,9.7a1.38,1.38,0,0,0,1.143.877,10,10,0,0,0,2.54.006Z" transform="translate(-1.841 -0.028)" fill="#fff"/>
</svg>
