<svg xmlns="http://www.w3.org/2000/svg" width="66.122" height="75" viewBox="0 0 66.122 75">
  <g id="html-5-logo-svgrepo-com_1_" data-name="html-5-logo-svgrepo-com(1)" transform="translate(-1.609)">
    <path id="Path_35" data-name="Path 35" d="M1.609.022c.036.356.063.685.091,1.013.284,3.183.56,6.368.847,9.549q.547,6.066,1.09,12.138.455,5.1.905,10.214.513,5.751,1.03,11.5c.3,3.4.6,6.81.905,10.214.37,4.146.745,8.287,1.1,12.433a.426.426,0,0,0,.373.453q13.155,3.71,26.294,7.417a1.425,1.425,0,0,0,.707,0q13.2-3.7,26.39-7.4a.476.476,0,0,0,.414-.511c.188-2.311.4-4.618.6-6.926q.34-3.818.685-7.647c.2-2.28.4-4.555.61-6.838q.348-3.826.685-7.649.3-3.416.61-6.835l.679-7.619c.2-2.286.4-4.571.616-6.863l.679-7.619c.2-2.313.409-4.632.627-6.948.058-.69.116-1.386.182-2.1C45.672.022,23.668.022,1.609.022ZM54.671,21.987H23.008c.248,2.852.494,5.676.737,8.508H53.94c-.075.6-.168,1.165-.221,1.736-.141,1.438-.276,2.879-.4,4.312-.232,2.6-.458,5.223-.685,7.826-.2,2.341-.4,4.668-.61,7.009-.13,1.477-.276,2.954-.4,4.428-.022.232-.171.237-.306.279q-5.354,1.474-10.7,2.945c-1.957.544-3.912,1.093-5.872,1.631a.547.547,0,0,1-.3-.019q-8.306-2.282-16.6-4.563c-.254-.063-.259-.221-.276-.4-.141-1.778-.282-3.542-.414-5.319q-.277-3.578-.56-7.161c-.006-.061-.006-.135-.011-.221h8.2c.069.776.144,1.551.21,2.313.121,1.353.243,2.7.359,4.063a.241.241,0,0,0,.207.259Q30,50.8,34.459,52a.676.676,0,0,0,.34-.011c2.932-.787,5.861-1.585,8.8-2.363a.317.317,0,0,0,.271-.312q.484-5.192.985-10.388c0-.011-.006-.025-.011-.063H16.129c-.754-8.367-1.5-16.7-2.247-25.065H55.447C55.2,16.53,54.931,19.243,54.671,21.987Z" transform="translate(0)" fill="#fff"/>
  </g>
</svg>
