<svg xmlns="http://www.w3.org/2000/svg" width="75" height="75" viewBox="0 0 75 75">
  <g id="adobe-illustrator-svgrepo-com_1_" data-name="adobe-illustrator-svgrepo-com(1)" transform="translate(0 -0.001)">
    <path id="Union_3" data-name="Union 3" d="M0,75V0H75V75ZM52.575,57.956h8.872V29.468H52.575ZM36.527,47.882l3.038,10.074h9.542L36.927,18.674H25.287L13.262,57.956h9.21l2.814-10.074ZM52.351,21.535a4.338,4.338,0,0,0,4.6,4.427,4.468,4.468,0,1,0,.069-8.918A4.335,4.335,0,0,0,52.351,21.535Zm-25.8,19.689s3.552-13.563,4.136-15.914h.114c.578,2.351,4.445,15.914,4.445,15.914Z" transform="translate(0 0.001)" fill="#fff"/>
  </g>
</svg>
