<svg xmlns="http://www.w3.org/2000/svg" width="77.864" height="75" viewBox="0 0 77.864 75">
  <path id="jquery-svgrepo-com" d="M4.948,18.054c-6.9,9.908-6.041,22.795-.769,33.316.12.256.253.5.383.743.075.169.159.324.25.487.042.088.1.182.152.266.084.169.175.331.263.493l.509.863c.1.159.185.315.292.474.182.3.389.607.577.912.084.13.162.253.256.38q.472.743,1.006,1.444c.253.347.506.685.779,1.022.088.123.188.247.279.373l.714.873c.091.1.178.217.273.321.318.383.655.756.993,1.136l.016.019A10.168,10.168,0,0,0,12.3,62.6c.26.269.519.535.795.795l.328.315c.36.341.723.678,1.1,1,.006,0,.01.006.016.01l.185.162c.331.289.665.577,1.006.844l.406.341c.276.221.565.431.844.649l.444.341c.3.227.623.451.931.672.114.081.227.162.344.237l.1.075.908.6.389.26c.48.3.954.6,1.427.882.133.065.273.143.4.221.35.2.714.406,1.067.594.195.11.4.2.6.3.243.136.5.269.759.406a1.05,1.05,0,0,1,.182.075c.107.049.208.1.311.152.389.195.795.383,1.217.568a2.643,2.643,0,0,1,.247.11c.467.2.938.4,1.421.59.11.032.227.088.341.13.438.165.889.334,1.333.493l.162.058c.5.169.99.331,1.492.487.117.032.237.075.36.107.519.156,1.019.341,1.538.444,33.329,6.073,43.013-20.04,43.013-20.04-8.137,10.6-22.574,13.389-36.252,10.281-.506-.117-1.012-.279-1.525-.428q-.926-.275-1.84-.59l-.2-.078c-.441-.149-.866-.315-1.3-.48q-.176-.071-.357-.13c-.48-.195-.941-.393-1.4-.6-.1-.032-.185-.078-.285-.117q-.59-.271-1.174-.552-.175-.077-.344-.169c-.3-.143-.61-.308-.908-.464q-.307-.148-.607-.311c-.37-.195-.736-.406-1.1-.607-.11-.078-.237-.143-.363-.214q-.719-.426-1.424-.876-.2-.12-.383-.253-.516-.32-1.012-.672c-.114-.075-.217-.156-.334-.237q-.485-.335-.957-.688c-.136-.11-.282-.214-.428-.324-.285-.227-.574-.438-.86-.675L22.519,56q-.553-.443-1.087-.908a.837.837,0,0,0-.12-.1l-1.126-1.025-.324-.3c-.266-.273-.539-.532-.811-.8l-.318-.324q-.514-.512-1-1.048l-.049-.052c-.344-.376-.681-.762-1.015-1.152-.088-.1-.172-.208-.26-.315l-.736-.9q-.561-.721-1.1-1.457c-7.585-10.353-10.33-24.647-4.26-36.369M26.344,9.71c-5,7.173-4.717,16.77-.824,24.358a29.559,29.559,0,0,0,2.2,3.676,17.239,17.239,0,0,0,2.573,3.205c.347.4.723.779,1.116,1.168l.292.292c.37.357.753.7,1.136,1.054l.052.042q.656.573,1.343,1.11c.11.075.2.162.311.237.454.35.915.688,1.389,1.025l.049.029c.2.146.415.279.642.422.091.058.195.136.292.195.344.221.681.428,1.032.639.055.023.1.052.156.075.292.178.61.35.915.509.107.065.211.114.324.175.214.107.428.221.639.331l.1.045c.438.217.886.419,1.324.616.11.045.2.081.3.127.36.156.727.3,1.09.444.162.055.315.12.467.169.331.123.681.237,1.006.35l.454.146a11.71,11.71,0,0,0,1.457.422c25.727,4.26,31.684-15.556,31.684-15.556-5.363,7.721-15.741,11.4-26.8,8.526q-.734-.19-1.457-.422c-.156-.045-.292-.094-.441-.14-.337-.117-.685-.227-1.012-.354l-.467-.175c-.367-.146-.736-.282-1.09-.438-.11-.049-.211-.081-.3-.13-.454-.2-.912-.406-1.356-.623l-.668-.347-.386-.195q-.436-.232-.86-.487a2.012,2.012,0,0,1-.2-.114c-.344-.214-.7-.422-1.032-.642-.11-.062-.211-.136-.315-.2l-.675-.441c-.467-.324-.925-.675-1.389-1.015-.1-.094-.2-.172-.3-.256A30.9,30.9,0,0,1,28.6,22.6,23.28,23.28,0,0,1,30.413,3.942m13.925-.477a14.993,14.993,0,0,0-1.2,14.47A20.407,20.407,0,0,0,54.842,28.868c.211.081.415.149.636.227l.285.088c.3.1.6.2.908.273,14.213,2.741,18.061-7.3,19.1-8.773-3.384,4.86-9.058,6.025-16.02,4.331a15.735,15.735,0,0,1-1.674-.519,20.607,20.607,0,0,1-2-.824,21.186,21.186,0,0,1-3.51-2.141C46.323,16.8,42.459,7.786,46.527.441" transform="translate(0 -0.441)" fill="#fff"/>
</svg>
