<svg xmlns="http://www.w3.org/2000/svg" width="74.998" height="75.001" viewBox="0 0 74.998 75.001">
  <path id="Exclusion_4" data-name="Exclusion 4" d="M-1422-3326h-75v-75h75v75Zm-36.457-13.91h0l-.618,2.784a15.693,15.693,0,0,0,5.848,1.125c2.681,0,4.387-.431,5.366-1.357.85-.8,1.213-2,1.213-4.013,0-1.826-.051-2.994-.755-3.832-.658-.782-1.844-1.288-4.53-1.933-3.228-.786-3.29-.842-3.29-2.981,0-1.6.406-2.137,2.812-2.137a24.617,24.617,0,0,1,5,.563l.393-2.98a25.714,25.714,0,0,0-5.455-.619c-4.474,0-6.3,1.475-6.3,5.089,0,4.039.721,4.859,5.145,5.848,1.755.38,2.556.6,2.981.984s.45.923.45,2c0,1.78-.411,2.334-2.981,2.334a17.454,17.454,0,0,1-5.286-.872Zm22.662-14.817c-5.512,0-7.761,1.89-7.761,6.523v6.833a5.547,5.547,0,0,0,1.083,3.9c.891.991,2.431,1.472,4.71,1.472,3.878,0,5.764-1.674,5.764-5.116v-1.35a4.746,4.746,0,0,0-1.114-3.532,5.048,5.048,0,0,0-3.665-1.107,10.477,10.477,0,0,0-3.346.507v-1.743c0-1.428.34-2.289,1.1-2.791a6.6,6.6,0,0,1,3.592-.64,15.876,15.876,0,0,1,2.643.254l.225-2.868A16.4,16.4,0,0,0-1435.8-3354.727Zm-37.648-.281v18.726h11.471v-3.121h-7.929v-4.836h7.311v-3.121h-7.311v-4.527h7.929v-3.12Zm35.68,16.054c-1.766,0-2.362-.518-2.362-2.052v-2.559a7.31,7.31,0,0,1,2.812-.59c1.338,0,1.884.513,1.884,1.771v1.378C-1435.432-3339.51-1436.064-3338.953-1437.765-3338.953Z" transform="translate(1497 3401)" fill="#fff"/>
</svg>
