<svg xmlns="http://www.w3.org/2000/svg" width="75" height="75" viewBox="0 0 75 75">
  <g id="photoshop-svgrepo-com" transform="translate(-392 -146.35)">
    <path id="Union_2" data-name="Union 2" d="M0,75V0H75V75ZM41.1,55.929a20.442,20.442,0,0,0,9.382,2.027c8.3,0,12.589-3.976,12.589-9.4-.062-4.268-2.376-7.069-7.9-8.956-3.55-1.258-4.668-1.97-4.668-3.332,0-1.481,1.237-2.376,3.431-2.376a14.306,14.306,0,0,1,6.294,1.669l1.6-6.237a19.433,19.433,0,0,0-8.2-1.664c-7.184,0-11.815,4.1-11.815,9.5-.062,3.452,2.251,6.721,8.265,8.732,3.368,1.138,4.262,1.845,4.262,3.327s-1.138,2.438-3.857,2.438a17.748,17.748,0,0,1-7.776-2.193ZM11.927,17.875V57.369h8.956V43.054a22.946,22.946,0,0,0,3.082.161c5.344,0,9.928-1.3,12.995-4.2a12.727,12.727,0,0,0,3.7-9.5,11.62,11.62,0,0,0-4.283-9.263c-2.662-2.152-6.638-3.207-12.225-3.207A74.7,74.7,0,0,0,11.927,17.875ZM20.9,36.047V24.233a14.848,14.848,0,0,1,3.717-.364c4.527,0,7.069,2.188,7.09,5.863,0,4.106-2.989,6.539-7.8,6.539A14.627,14.627,0,0,1,20.9,36.047Z" transform="translate(392 146.35)" fill="#fff"/>
  </g>
</svg>
