<svg xmlns="http://www.w3.org/2000/svg" width="84.295" height="75" viewBox="0 0 84.295 75">
  <path id="react-svgrepo-com" d="M42.148,31.309a7.513,7.513,0,1,0,7.513,7.513A7.513,7.513,0,0,0,42.148,31.309ZM21.1,53.767l-1.658-.421C7.088,50.223,0,44.923,0,38.808S7.088,27.393,19.444,24.271l1.658-.418.467,1.644a82.643,82.643,0,0,0,4.787,12.567l.355.748-.355.748a81.86,81.86,0,0,0-4.787,12.567l-.467,1.64ZM18.675,28.11c-9.392,2.638-15.156,6.673-15.156,10.7s5.764,8.057,15.156,10.7a87.632,87.632,0,0,1,4.152-10.7,86.938,86.938,0,0,1-4.152-10.7ZM63.193,53.767l-.467-1.647a82.037,82.037,0,0,0-4.791-12.563l-.355-.748.355-.748a82.257,82.257,0,0,0,4.791-12.567l.467-1.644,1.661.418C77.207,27.389,84.3,32.69,84.3,38.808S77.207,50.223,64.855,53.345ZM61.469,38.808a86.845,86.845,0,0,1,4.152,10.7c9.4-2.641,15.156-6.677,15.156-10.7s-5.764-8.057-15.156-10.7A87.065,87.065,0,0,1,61.469,38.808ZM18.65,28.092l-.467-1.64c-3.474-12.244-2.42-21.018,2.891-24.08,5.209-3.007,13.572.544,22.335,9.539L44.6,13.137l-1.194,1.226A82.721,82.721,0,0,0,34.9,24.783l-.474.678-.825.07a83.089,83.089,0,0,0-13.294,2.142l-1.658.418ZM25.31,4.805a4.9,4.9,0,0,0-2.476.608c-3.491,2.013-4.109,9.009-1.7,18.45A88.235,88.235,0,0,1,32.485,22.1a87.272,87.272,0,0,1,7.207-8.935C34.213,7.833,29.026,4.805,25.31,4.805ZM58.989,76.323h0c-5.005,0-11.433-3.769-18.1-10.618l-1.194-1.226,1.194-1.226a82.645,82.645,0,0,0,8.5-10.425l.474-.678.822-.07a83,83,0,0,0,13.3-2.139l1.658-.418.471,1.644c3.467,12.237,2.416,21.014-2.894,24.073a8.359,8.359,0,0,1-4.232,1.082ZM44.6,64.448c5.479,5.335,10.667,8.363,14.383,8.363h0a4.887,4.887,0,0,0,2.473-.608c3.491-2.013,4.113-9.013,1.7-18.454a87.877,87.877,0,0,1-11.359,1.76A86.661,86.661,0,0,1,44.6,64.448ZM65.645,28.092l-1.658-.418a82.465,82.465,0,0,0-13.3-2.143l-.822-.07-.474-.678a82.238,82.238,0,0,0-8.5-10.421l-1.194-1.226,1.194-1.226C49.646,2.919,58.006-.632,63.221,2.371c5.311,3.063,6.364,11.836,2.894,24.077l-.471,1.644ZM51.806,22.1a87.591,87.591,0,0,1,11.359,1.76c2.409-9.441,1.788-16.438-1.7-18.45-3.47-2.006-9.992,1.068-16.859,7.755a87.278,87.278,0,0,1,7.2,8.935ZM25.31,76.323a8.359,8.359,0,0,1-4.236-1.082c-5.311-3.059-6.364-11.833-2.891-24.073l.464-1.644,1.658.418A82.9,82.9,0,0,0,33.6,52.081l.825.07.471.678A82.877,82.877,0,0,0,43.4,63.254L44.6,64.479,43.4,65.705C36.735,72.554,30.308,76.323,25.31,76.323ZM21.13,53.749c-2.409,9.441-1.788,16.441,1.7,18.454,3.467,1.977,9.985-1.071,16.859-7.755a87.8,87.8,0,0,1-7.207-8.939,87.724,87.724,0,0,1-11.355-1.76Zm21.018,2.206c-2.891,0-5.862-.126-8.837-.372l-.825-.07-.474-.678q-2.524-3.627-4.742-7.453t-4.1-7.825l-.351-.748.351-.748q1.884-4,4.1-7.825c1.454-2.515,3.052-5.023,4.742-7.453l.474-.678.825-.07a104.614,104.614,0,0,1,17.677,0l.822.07.471.678a105.388,105.388,0,0,1,8.84,15.279l.355.748-.355.748a103.964,103.964,0,0,1-8.84,15.278l-.471.678-.822.07c-2.975.246-5.95.372-8.84.372Zm-7.717-3.807a102.013,102.013,0,0,0,15.437,0,101.877,101.877,0,0,0,7.713-13.34,100.4,100.4,0,0,0-7.717-13.34,101.966,101.966,0,0,0-15.433,0,100.019,100.019,0,0,0-7.717,13.34,102.256,102.256,0,0,0,7.717,13.34Z" transform="translate(0 -1.324)" fill="#fff"/>
</svg>
