<svg xmlns="http://www.w3.org/2000/svg" width="100.008" height="75" viewBox="0 0 100.008 75">
  <g id="sass-svgrepo-com" transform="translate(-0.454 -0.454)">
    <path id="Path_34" data-name="Path 34" d="M86.569,43.569a20.7,20.7,0,0,0-9.06,2.1,19.084,19.084,0,0,1-2.028-4.695,12.6,12.6,0,0,1-.183-3.946,35.1,35.1,0,0,1,1.187-4.256c-.018-.183-.219-1.041-2.229-1.059s-3.745.384-3.946.913a22.05,22.05,0,0,0-.84,2.978c-.347,1.827-4.018,8.348-6.119,11.764a12.7,12.7,0,0,1-1.388-3.434,12.6,12.6,0,0,1-.183-3.946,35.106,35.106,0,0,1,1.187-4.256c-.018-.183-.219-1.041-2.229-1.059s-3.745.384-3.946.913-.42,1.772-.84,2.978-5.3,12.093-6.576,14.906c-.658,1.443-1.224,2.594-1.626,3.38h0a.839.839,0,0,1-.073.146c-.347.676-.548,1.041-.548,1.041v.018c-.274.493-.566.95-.713.95a6.11,6.11,0,0,1,.036-3.105c.731-3.781,2.466-9.663,2.448-9.864,0-.11.329-1.133-1.133-1.663a1.814,1.814,0,0,0-2.064.347c-.128,0-.219.311-.219.311s1.589-6.613-3.032-6.613c-2.886,0-6.868,3.16-8.841,6.01-1.242.676-3.891,2.119-6.722,3.672-1.078.6-2.192,1.206-3.233,1.772-.073-.073-.146-.165-.219-.237C17.849,43.66,7.51,39.44,7.948,31.421,8.113,28.5,9.117,20.826,27.8,11.51c15.381-7.581,27.62-5.48,29.739-.822,3.032,6.649-6.558,19-22.45,20.788-6.065.676-9.243-1.662-10.047-2.539-.84-.913-.968-.968-1.279-.785-.511.274-.183,1.1,0,1.571.475,1.242,2.429,3.434,5.736,4.512,2.923.95,10.028,1.48,18.632-1.845,9.627-3.726,17.153-14.084,14.942-22.761-2.21-8.8-16.824-11.709-30.652-6.8C24.206,5.756,15.292,10.359,8.88,16.351,1.263,23.475.057,29.668.55,32.261,2.322,41.468,15.018,47.459,20.1,51.9c-.256.146-.493.274-.694.384C16.863,53.542,7.181,58.6,4.77,63.954c-2.74,6.064.438,10.412,2.539,11,6.521,1.809,13.225-1.443,16.824-6.814s3.16-12.348,1.5-15.545a.383.383,0,0,0-.073-.11c.658-.384,1.334-.785,1.991-1.169,1.3-.767,2.576-1.48,3.672-2.064a24.071,24.071,0,0,0-1.3,6.649c-.274,3.434,1.133,7.891,2.977,9.645a3.291,3.291,0,0,0,2.411.785c2.156,0,3.124-1.79,4.2-3.909,1.315-2.594,2.5-5.608,2.5-5.608s-1.48,8.147,2.539,8.147c1.461,0,2.941-1.9,3.6-2.868v.018s.036-.055.11-.183c.146-.237.237-.384.237-.384v-.036c.584-1.023,1.9-3.343,3.854-7.2,2.521-4.968,4.95-11.179,4.95-11.179a31.713,31.713,0,0,0,.968,4.037,38.014,38.014,0,0,0,2.082,4.676c-.584.822-.95,1.279-.95,1.279l.018.018c-.475.621-.986,1.3-1.553,1.954-1.991,2.375-4.366,5.1-4.695,5.882a1.6,1.6,0,0,0,.438,2.156,3.988,3.988,0,0,0,2.448.4,11.247,11.247,0,0,0,3.671-.84,12.318,12.318,0,0,0,3.16-1.663A7.071,7.071,0,0,0,65.927,54.8a12.579,12.579,0,0,0-1.151-4.4c.183-.255.347-.511.53-.767a83.717,83.717,0,0,0,5.48-9.462,31.707,31.707,0,0,0,.968,4.037,27.071,27.071,0,0,0,1.772,4.018,17.365,17.365,0,0,0-5.334,6.887c-1.151,3.325-.256,4.822,1.443,5.169a5.09,5.09,0,0,0,2.667-.548A12.147,12.147,0,0,0,75.682,58c1.954-1.443,3.836-3.453,3.726-6.174a11.672,11.672,0,0,0-.84-3.654,19.134,19.134,0,0,1,9.7-1.114c8.7,1.023,10.412,6.448,10.083,8.731A5.78,5.78,0,0,1,95.593,59.7c-.6.384-.8.512-.749.785.073.4.365.384.877.311a6.79,6.79,0,0,0,4.731-6.046c.274-5.37-4.841-11.234-13.883-11.179ZM19.493,66.183c-2.886,3.142-6.9,4.329-8.64,3.325C8.989,68.43,9.72,63.79,13.264,60.466a46.029,46.029,0,0,1,6.777-5.06c.42-.256,1.041-.621,1.79-1.078.128-.073.2-.11.2-.11h0l.438-.274a12.476,12.476,0,0,1-2.977,12.239ZM40.5,51.9c-1,2.448-3.105,8.713-4.384,8.366-1.1-.292-1.772-5.042-.219-9.736a22.11,22.11,0,0,1,3.416-6.265c1.571-1.754,3.306-2.338,3.726-1.626.53.932-1.918,7.727-2.539,9.261Zm17.335,8.293c-.42.219-.822.365-1,.256-.128-.073.183-.365.183-.365s2.174-2.338,3.032-3.4c.493-.621,1.078-1.352,1.7-2.174v.237c0,2.8-2.7,4.677-3.909,5.444Zm13.371-3.05c-.311-.219-.256-.95.785-3.233a12.173,12.173,0,0,1,2.978-3.836,5.171,5.171,0,0,1,.292,1.681,5.526,5.526,0,0,1-4.055,5.389Z" transform="translate(0 0)" fill="#fff"/>
  </g>
</svg>
