<?xml version="1.0" encoding="utf-8"?>
<!-- Generator: Adobe Illustrator 26.4.1, SVG Export Plug-In . SVG Version: 6.00 Build 0)  -->
<svg version="1.1" id="Layer_1" xmlns="http://www.w3.org/2000/svg" xmlns:xlink="http://www.w3.org/1999/xlink" x="0px" y="0px"
	 viewBox="0 0 2500 2500" style="enable-background:new 0 0 2500 2500;" xml:space="preserve">
<style type="text/css">
	.st0{fill:#FFFFFF;}
</style>
<path class="st0" d="M0,0v2500h2500V0H0z M1874.4,1586.6c-17.1,245-164.6,420.7-398.9,478.6c-306.2,75.7-603.5-39.6-854.7-200.6
	c63.4-96.6,137-162.5,200-258.5c145.1,61.8,259.2,145.3,411,158.3c107.1,9.2,228.4,4.1,252.4-121.7c21.7-113.4-77-174.2-173.3-208.1
	c-114.6-40.4-229-89.9-341.4-135.8c-207.7-84.9-292.3-250.8-278-446.3c0-114.6,95.1-346.3,328.3-418.4
	c358.3-110.7,555.7,2.7,815.6,169.6c-69,91.3-122.1,156.2-190.2,246.3c0,0,0,0,0,0h0h0c-132-76.6-249.2-136.8-402.4-134.2
	c-87.7,1.5-163,49.2-178.8,136.4c-14.7,81.2,57.4,126.2,132.5,153.8c124.5,45.8,232.9,94.2,355.2,145.2
	C1773.9,1244,1887.9,1394,1874.4,1586.6z"/>
</svg>
