<svg xmlns="http://www.w3.org/2000/svg" width="75.001" height="75.001" viewBox="0 0 75.001 75.001">
  <g id="typescript-logo-svgrepo-com" transform="translate(0)">
    <path id="Exclusion_5" data-name="Exclusion 5" d="M-1370-3148h-75v-75h75v75Zm-20.331-15.789-1.178.688-1.564.907-.4.25a7.581,7.581,0,0,0,1.085,1.606,7.857,7.857,0,0,0,4.244,2.221,11.921,11.921,0,0,0,1.79.114,9.174,9.174,0,0,0,1.391-.084,5.575,5.575,0,0,0,4.62-3.306,6.1,6.1,0,0,0-.49-5.079c-.777-1.2-2.054-2.044-5.058-3.336-1.621-.711-2.141-1.061-2.419-1.627a1.652,1.652,0,0,1-.188-.793,1.672,1.672,0,0,1,1.878-1.676c.067,0,.137,0,.208.007a2.378,2.378,0,0,1,1.96,1.168c.146.236.306.421.364.421a.019.019,0,0,0,.011,0c1.111-.688,2.9-1.9,2.9-1.961a6.62,6.62,0,0,0-1-1.335,5.071,5.071,0,0,0-2.607-1.491l.022-.021a9.462,9.462,0,0,0-2.023-.185,6.448,6.448,0,0,0-1.148.081,5.058,5.058,0,0,0-4.276,3.963,8.016,8.016,0,0,0,.063,2.68,5.943,5.943,0,0,0,1.148,2.086,10.526,10.526,0,0,0,3.931,2.4c1.907.847,2.552,1.222,2.878,1.669a1.6,1.6,0,0,1,.313,1.063,1.561,1.561,0,0,1-.553,1.252,3.126,3.126,0,0,1-2.083.677,4.41,4.41,0,0,1-1.984-.468,5.683,5.683,0,0,1-1.564-1.523l-.271-.365h0Zm-13.4-9.865v15.434h3.848v-15.434h5.423v-1.668a12.726,12.726,0,0,0-.042-1.721c-.016-.019-1.3-.041-7.321-.041l-7.3.031v1.711l-.031-.011h0v1.7Z" transform="translate(1445 3223)" fill="#fff"/>
  </g>
</svg>
