<svg xmlns="http://www.w3.org/2000/svg" width="76.874" height="75" viewBox="0 0 76.874 75">
  <path id="Exclusion_3" data-name="Exclusion 3" d="M76.874,75H0V0H76.874V75ZM3.2,71.793h0ZM57.012,29.12a16.734,16.734,0,0,0-8.333,1.911,13.51,13.51,0,0,0-7.048,12.054,14.328,14.328,0,0,0,1.812,7.509,11.44,11.44,0,0,0,4.973,4.479,16.419,16.419,0,0,0,6.855,1.483H55.5a28.928,28.928,0,0,0,5.072-.461,25.146,25.146,0,0,0,5.368-1.581.535.535,0,0,0,.329-.527l-.016-.269c-.029-.5-.061-1.057-.117-1.642l-.011-.244c-.028-.621-.055-1.207-.055-1.732V18.68a.306.306,0,0,0-.278-.236.26.26,0,0,0-.052.005H59.054c-.222,0-.329.118-.329.362V29.219c-.186-.016-.354-.024-.517-.032-.178-.009-.347-.017-.5-.034A5.79,5.79,0,0,0,57.012,29.12ZM10.838,21.314a.385.385,0,0,0-.329.132c-.063.063-.038.189.066.329L20.553,38.67l-10.242,16.8a.457.457,0,0,0-.067.363.139.139,0,0,0,.022.091.072.072,0,0,0,.059.021.518.518,0,0,0,.061-.005.71.71,0,0,1,.09-.007h7.245c.347,0,.623-.027.758-.363.5-.892,1.009-1.828,1.5-2.734q.387-.711.771-1.416c.666-1.272,1.373-2.594,2.056-3.873l0,0,.181-.338c.743-1.388,1.511-2.822,2.207-4.248h.066c.737,1.351,1.487,2.7,2.212,4l.16.286c.688,1.232,1.491,2.688,2.239,4.15.343.686.7,1.374,1.045,2.04s.714,1.378,1.063,2.077c.236.336.613.362,1.12.362h7.542a.54.54,0,0,1,.089-.007.936.936,0,0,1,.1.006h.012c.025,0,.047,0,.067,0a.085.085,0,0,0,.1-.071.563.563,0,0,0-.066-.4L30.4,38.111l9.88-16.3c.069-.069.131-.2.1-.23a.3.3,0,0,0-.3-.237.323.323,0,0,0-.064.006H33.069a.638.638,0,0,0-.126-.013.657.657,0,0,0-.3.079.551.551,0,0,0-.2.329c-.3.553-.6,1.125-.889,1.679-.428.813-.869,1.652-1.318,2.471-.7,1.279-1.495,2.728-2.24,4.15-.882,1.685-1.542,2.995-2.14,4.248H25.79c-.727-1.487-1.449-2.855-2.207-4.182-.676-1.135-1.294-2.246-1.948-3.423l-.423-.76C20.3,24.213,19.646,22.9,19.1,21.677a.924.924,0,0,0-.329-.3,1.891,1.891,0,0,0-.461-.067ZM56.156,50.2a8.636,8.636,0,0,1-2.733-.428,5.661,5.661,0,0,1-2.239-1.318A6.437,6.437,0,0,1,49.7,46.114a9.129,9.129,0,0,1-.56-3.393,6.793,6.793,0,0,1,3.886-6.62,8.051,8.051,0,0,1,3.722-.856c.372,0,.752.035,1.087.066a8.146,8.146,0,0,1,.861.159l.028.006V49.967a2.984,2.984,0,0,1-.971.173c-.07,0-.143,0-.215-.008C57.111,50.165,56.652,50.2,56.156,50.2Z" fill="#fff"/>
</svg>
