<svg xmlns="http://www.w3.org/2000/svg" xmlns:xlink="http://www.w3.org/1999/xlink" width="181.13" height="144.939" viewBox="0 0 181.13 144.939"><defs><clipPath id="a"><rect width="181.13" height="144.939" fill="none"/></clipPath></defs><g clip-path="url(#a)"><path d="M12.9,12.512,32.083,24.579,62.629,43.79l6.961,4.378q.218-.516.434-1.03L51.951,40.815,23.133,30.735,16.5,28.416l.393.394q-1.587-8.467-3.175-16.935c-.133-.712-1.22-.41-1.087.3L15.811,29.11a.567.567,0,0,0,.394.394l18.074,6.322L63.1,45.906l6.628,2.319c.621.217.957-.7.434-1.031L50.971,35.127,20.425,15.916l-6.961-4.378c-.616-.387-1.182.588-.569.974" fill="#fff"/><path d="M172.92,11.649l-19.041,12.7L123.553,44.569l-6.93,4.622c-.5.335-.2,1.251.434,1.03L145.949,40.19l17.691-6.142c1.473-.511,2.95-1.013,4.419-1.534,1.056-.375,1.02-1.35,1.274-2.377q2.208-8.925,4.415-17.851c.174-.7-.913-1.005-1.087-.3l-4.869,19.686.394-.393-17.359,6.026-27.688,9.613-6.382,2.216.435,1.03,19.041-12.7,30.326-20.223,6.93-4.622c.6-.4.037-1.377-.569-.973" fill="#fff"/><path d="M117.726,48.622l20.048-16.041L169.707,7.03l7.3-5.844c.566-.453-.236-1.246-.8-.8L156.165,16.43,124.232,41.982l-7.3,5.843c-.567.453.236,1.246.8.8" fill="#fff"/><path d="M69.348,45.62,48.636,30.143,15.914,5.693Q12.179,2.9,8.442.109C7.86-.326,7.3.653,7.873,1.082L28.585,16.559,61.306,41.01l7.473,5.584c.581.434,1.144-.544.569-.974" fill="#fff"/><path d="M99.175,56.752a6.574,6.574,0,0,0-2.187,2.275c-1.019,1.448-1.911,2.985-2.837,4.492a53.634,53.634,0,0,1-8.329,11.02c-.527.5.272,1.3.8.8A52.715,52.715,0,0,0,94.754,64.69c.937-1.515,1.837-3.054,2.826-4.535a6.614,6.614,0,0,1,2.164-2.429c.652-.319.081-1.292-.569-.974" fill="#fff"/><path d="M95.211,56.443,98.5,60.834q.233.313.468.626a.582.582,0,0,0,.771.2.567.567,0,0,0,.2-.771L96.653,56.5q-.235-.313-.468-.626a.584.584,0,0,0-.773-.2.567.567,0,0,0-.2.771" fill="#fff"/><path d="M92.772,60.38l3.294,4.391.469.626a.581.581,0,0,0,.771.2.567.567,0,0,0,.2-.771l-3.293-4.392c-.157-.208-.313-.417-.469-.625a.583.583,0,0,0-.772-.2.568.568,0,0,0-.2.771" fill="#fff"/><path d="M90.648,63.75l3.294,4.391.469.626a.581.581,0,0,0,.771.2.567.567,0,0,0,.2-.771q-1.647-2.2-3.293-4.391l-.469-.626a.583.583,0,0,0-.772-.2.568.568,0,0,0-.2.771" fill="#fff"/><path d="M88.381,67.231l3.294,4.391q.234.313.469.626a.581.581,0,0,0,.771.2.567.567,0,0,0,.2-.771q-1.647-2.2-3.293-4.391l-.469-.626a.583.583,0,0,0-.772-.2.568.568,0,0,0-.2.771" fill="#fff"/><path d="M85.352,70.3l3.294,4.391q.234.313.469.626a.581.581,0,0,0,.771.2.567.567,0,0,0,.2-.771q-1.647-2.2-3.293-4.391l-.469-.626a.583.583,0,0,0-.772-.2.568.568,0,0,0-.2.771" fill="#fff"/><line x2="15.583" y2="2.917" transform="translate(142.671 32.496)" fill="none" stroke="#fff" stroke-linecap="round" stroke-miterlimit="10" stroke-width="2.255"/><line x1="10.593" y2="16.25" transform="translate(146.756 23.063)" fill="none" stroke="#fff" stroke-linecap="round" stroke-miterlimit="10" stroke-width="2.255"/><path d="M15.614,75.347Q13.159,66.26,10.7,57.174L2.91,28.342q-.9-3.325-1.8-6.652l-1.03.435,16.08,21.151,3.119,4.1a1.942,1.942,0,0,0,.325.427c.329.212-.166.1.064-.271a3.384,3.384,0,0,0-.178.962q-1.31,7.085-2.62,14.169-1.173,6.34-2.345,12.682c-.131.709.955,1.013,1.087.3q2.409-13.032,4.819-26.063c.122-.657.508-1.646.2-2.272a20.924,20.924,0,0,0-2.328-3.063l-9.9-13.021L1.055,21.556c-.363-.479-1.21-.23-1.03.434Q2.48,31.077,4.937,40.163,8.832,54.579,12.729,69q.9,3.325,1.8,6.652a.564.564,0,0,0,1.087-.3" fill="#fff"/><path d="M19.929,48.168l28.8,21.8,4.02,3.043c-.067-.257-.135-.514-.2-.771L38.17,93.339l-2.034,2.984,1.031.135q-2.775-8.271-5.549-16.543Q27.2,66.737,22.779,53.561l-2.022-6.03c-.229-.684-1.319-.391-1.087.3l5.548,16.543q4.421,13.177,8.839,26.354l2.022,6.03a.572.572,0,0,0,1.031.134l14.376-21.1Q52.5,74.3,53.519,72.808a.576.576,0,0,0-.2-.771l-28.8-21.8L20.5,47.194c-.578-.437-1.141.541-.569.974" fill="#fff"/><path d="M14.583,75.782,22.67,89.293l12.907,21.564,2.987,4.991c.264.441,1.126.3,1.051-.284q-.624-4.863-1.246-9.725-.421-3.294-.844-6.587a9.83,9.83,0,0,0-.414-2.928,7.522,7.522,0,0,0-1.463-1.46q-1.858-1.822-3.721-3.645l-10.01-9.805L15.468,75.1c-.518-.508-1.316.288-.8.8L29.695,90.611l4.161,4.076a13.6,13.6,0,0,0,2.215,2.17c.385.218.041-.4.012-.073a7.415,7.415,0,0,0,.19,1.49q.383,2.983.764,5.968.726,5.661,1.45,11.322l1.051-.285-8.087-13.51L18.544,80.2q-1.494-2.5-2.987-4.991a.564.564,0,0,0-.974.569" fill="#fff"/><path d="M96.623,85.067l20.069,23.628,2.856,3.362.249-.942-31.914,6.97-4.46.974.694.693q5.891-15.3,11.782-30.6l1.666-4.329c.261-.677-.829-.971-1.087-.3q-5.89,15.3-11.782,30.605-.833,2.165-1.666,4.328c-.165.429.313.777.693.694l31.913-6.97,4.46-.974a.57.57,0,0,0,.249-.942L100.276,87.632,97.42,84.27c-.47-.554-1.264.247-.8.8" fill="#fff"/><path d="M63.714,137.108a.564.564,0,0,0,0-1.127.564.564,0,0,0,0,1.127" fill="#fff"/><path d="M52.883,73.067l14.885,4.11L91.384,83.7l5.487,1.515V84.125l-20.44,4.041L43.89,94.6l-7.417,1.466a.57.57,0,0,0-.134,1.031L52.2,104.863l25.283,12.383,5.805,2.843.285-1.05-15.055-1.366L44.537,115.5l-5.486-.5a.568.568,0,0,0-.4.962l21.593,18.37,3.069,2.611a.583.583,0,0,0,.8,0l17.339-14.791L83.971,120l-.548.145,18.773,2.742,29.915,4.369,6.859,1c.71.1,1.016-.982.3-1.087l-34.272-5-18.569-2.712c-.8-.117-2.348-.672-3.141-.338a6.514,6.514,0,0,0-1.316,1.113l-3.232,2.757-15.425,13.16h.8l-21.593-18.37-3.069-2.611-.4.962,15.055,1.366,23.981,2.176,5.486.5a.567.567,0,0,0,.284-1.05L68,111.347,42.713,98.964l-5.805-2.843-.135,1.03,20.441-4.04,32.541-6.433,7.416-1.466a.568.568,0,0,0,0-1.087l-14.885-4.11L58.67,73.5,53.183,71.98a.564.564,0,0,0-.3,1.087" fill="#fff"/><path d="M119.548,112.058l16.76,14.036,2.413,2.02a.577.577,0,0,0,.885-.114l17.466-22.94q1.261-1.656,2.523-3.313c.315-.412-.2-.941-.637-.828l-34.386,8.953-4.776,1.244a.564.564,0,0,0,.3,1.087l34.386-8.953,4.777-1.244-.637-.828-17.466,22.94-2.522,3.313.885-.114-16.761-14.036-2.413-2.02c-.553-.463-1.354.33-.8.8" fill="#fff"/><path d="M97.171,85.212l31.3-5.074,4.434-.719-.693-.694-11.2,28.664-1.61,4.12c-.264.676.826.969,1.088.3l11.2-28.665,1.609-4.119c.174-.444-.32-.754-.693-.693l-31.3,5.074-4.434.719c-.714.116-.411,1.2.3,1.087" fill="#fff"/><path d="M133.036,79.362l27.08-18.95,3.84-2.687-.828-.337q2.34,9.951,4.681,19.9.331,1.405.661,2.811l.544-.714-31.763-.943-4.5-.133c-.725-.022-.725,1.105,0,1.127l31.763.943,4.5.134a.57.57,0,0,0,.544-.714q-2.342-9.951-4.682-19.9-.33-1.405-.661-2.811a.568.568,0,0,0-.828-.337L136.306,75.7l-3.839,2.686c-.59.413-.027,1.391.569.974" fill="#fff"/><path d="M132.353,79.274,155.442,99.06l3.268,2.8a.57.57,0,0,0,.885-.114q4.338-9.42,8.675-18.838.616-1.336,1.231-2.672c.3-.655-.67-1.228-.974-.569q-4.336,9.418-8.675,18.838l-1.23,2.672.885-.114L136.419,81.278l-3.269-2.8c-.548-.47-1.349.324-.8.8" fill="#fff"/><path d="M169.558,80.1q1.953-8.241,3.908-16.481,3.111-13.125,6.223-26.25.713-3,1.423-6a.566.566,0,0,0-1.03-.435q-7.408,11.408-14.816,22.815-1.041,1.6-2.081,3.2c-.4.61.579,1.176.973.569l14.817-22.815,2.08-3.2-1.03-.434q-1.953,8.24-3.907,16.48-3.112,13.126-6.224,26.251-.712,3-1.423,6c-.167.706.919,1.007,1.087.3" fill="#fff"/><path d="M83.174,120l17.808,21.7,2.524,3.075a.571.571,0,0,0,.683.088l30.849-14.6L139.4,128.2c.656-.311.084-1.283-.569-.974l-30.848,14.6-4.367,2.067.683.088L86.5,122.279,83.971,119.2c-.46-.561-1.254.24-.8.8" fill="#fff"/><path d="M104.055,143.837l-35.231-6.869L63.864,136c-.709-.139-1.012.948-.3,1.087L98.8,143.957l4.959.967c.709.138,1.013-.948.3-1.087" fill="#fff"/></g></svg>