<svg xmlns="http://www.w3.org/2000/svg" xmlns:xlink="http://www.w3.org/1999/xlink" width="160" height="195.721" viewBox="0 0 160 195.721"><defs><linearGradient id="a" x1="1" y1="0.875" x2="0.161" y2="0.107" gradientUnits="objectBoundingBox"><stop offset="0" stop-color="#0b2b22"/><stop offset="0.53" stop-color="#36c49f"/><stop offset="1"/></linearGradient><filter id="b" x="0" y="0" width="160" height="195.721" filterUnits="userSpaceOnUse"><feOffset dx="6" dy="10" input="SourceAlpha"/><feGaussianBlur stdDeviation="10" result="c"/><feFlood flood-opacity="0.502"/><feComposite operator="in" in2="c"/><feComposite in="SourceGraphic"/></filter></defs><g transform="matrix(1, 0, 0, 1, 0, 0)" filter="url(#b)"><path d="M135.223,120.15c-15.2-48.246-11.369-41.64-22.811-65.9-6.4-13.586-18.646-19.654-22.452-19.6-2.172.033-17.675,3.888-18.654,3.886-2.857,0-7.994,2.123-9.881,4.093-1.377,1.437-1.8,2.657-2.507,8.022a68.412,68.412,0,0,0-.732,11.385c-.355,4.794,4.223,10.789,13.975,12.117a5.756,5.756,0,0,0,4.47.376c2.808.15,3.464-2.069,6.8-2.674a3.862,3.862,0,0,0,4.086,0c3.831-.357,4.3-2.644,5.1-4.909,2.546,5.244,3.165,11.431,4.283,17.088.567,8.484-.6,13.035-1.254,32.067a1.721,1.721,0,0,0-.439.522c-4.639-5.477-7.415-6.895-15.657-7.808-8.7-.964-11.313,2.794-20.274,11.359-6.529-3.354-18.346-6.768-19.282-6.768-1.244,0-1.258,56.542-1.224,56.494.179,1.691,3.356-1.236,6.7-7.732,7.852-6.246,8.893-3.891,14.8-2.968,35.37,12.727,56.392-8.565,56.392-8.565s19.206-5.839,20.844-10.91C140.5,130.444,137.482,133.265,135.223,120.15Z" transform="translate(-14.76 -14.65)" opacity="0.67" fill="url(#a)"/></g></svg>