<svg xmlns="http://www.w3.org/2000/svg" xmlns:xlink="http://www.w3.org/1999/xlink" width="193.416" height="86.683" viewBox="0 0 193.416 86.683"><defs><linearGradient id="a" x1="0.015" x2="0.978" y2="0.645" gradientUnits="objectBoundingBox"><stop offset="0" stop-color="#0b2b22"/><stop offset="0.53" stop-color="#36c49f"/><stop offset="1"/></linearGradient><filter id="b" x="0" y="0" width="193.416" height="86.683" filterUnits="userSpaceOnUse"><feOffset dx="6" dy="10" input="SourceAlpha"/><feGaussianBlur stdDeviation="10" result="c"/><feFlood flood-opacity="0.502"/><feComposite operator="in" in2="c"/><feComposite in="SourceGraphic"/></filter></defs><g transform="translate(24 20)"><g transform="translate(0 0)"><g transform="matrix(1, 0, 0, 1, -24, -20)" filter="url(#b)"><path d="M53.367,26.683H16.01v-5.4H10.653V15.974H5.288v-5.3H0V0H133.416V10.673h-5.406v5.36H122.7V21.4h-5.3v5.286H85.386V21.263H80V16H74.677V5.455H64.014v10.6H58.63v5.325H53.367ZM101.448,15.95v5.242h5.2V16H101.4V10.7H96.032V5.48H90.748V10.7l-5.377-.015v-5.2h-5.2v5.153h5.241v5.349h5.329V21.2h5.286V15.985q2.709-.018,5.417-.034m-69.412.033V21.2h5.176V16.029H31.991V10.7H26.662V5.474H21.369V10.7l-5.33-.052V5.471H10.811V10.6c1.859,0,3.565,0,5.268,0v5.385h5.286v5.224h5.3V15.985l5.37,0m-5.329-5.332H21.323v5.38h5.384v-5.38m69.373,0H90.7v5.382h5.38Z" transform="translate(24 20)" fill="url(#a)"/></g></g></g></svg>