<svg xmlns="http://www.w3.org/2000/svg" xmlns:xlink="http://www.w3.org/1999/xlink" width="176.298" height="190" viewBox="0 0 176.298 190"><defs><linearGradient id="a" x1="0.083" y1="0.234" x2="0.806" y2="0.972" gradientUnits="objectBoundingBox"><stop offset="0" stop-color="#0b2b22"/><stop offset="0.53" stop-color="#36c49f"/><stop offset="1"/></linearGradient><filter id="b" x="0" y="0" width="176.298" height="190" filterUnits="userSpaceOnUse"><feOffset dx="6" dy="10" input="SourceAlpha"/><feGaussianBlur stdDeviation="10" result="c"/><feFlood flood-opacity="0.502"/><feComposite operator="in" in2="c"/><feComposite in="SourceGraphic"/></filter></defs><g transform="translate(-2.982 20)"><g transform="matrix(1, 0, 0, 1, 2.98, -20)" filter="url(#b)"><path d="M28.9,130a8.888,8.888,0,0,1-8.888-8.888v-3.84a2.687,2.687,0,0,1,2.687-2.687H93.1a2.687,2.687,0,0,1,2.687,2.687v3.84A8.888,8.888,0,0,1,86.9,130Zm-6.2-25.548a2.687,2.687,0,0,1-2.687-2.687V87.728A36.277,36.277,0,0,1,25.47,20.672a36.283,36.283,0,0,1,65.2-.621A36.277,36.277,0,0,1,95.787,87.4v14.364a2.687,2.687,0,0,1-2.687,2.687Z" transform="translate(24 20)" fill="url(#a)"/></g></g></svg>