<svg xmlns="http://www.w3.org/2000/svg" xmlns:xlink="http://www.w3.org/1999/xlink" width="207.5" height="139.05" viewBox="0 0 207.5 139.05"><defs><linearGradient id="a" x1="0.101" y1="0.055" x2="0.916" y2="1" gradientUnits="objectBoundingBox"><stop offset="0" stop-color="#0b2b22"/><stop offset="0.53" stop-color="#36c49f"/><stop offset="1"/></linearGradient><filter id="b" x="0" y="0" width="207.5" height="139.05" filterUnits="userSpaceOnUse"><feOffset dx="6" dy="10" input="SourceAlpha"/><feGaussianBlur stdDeviation="10" result="c"/><feFlood flood-opacity="0.502"/><feComposite operator="in" in2="c"/><feComposite in="SourceGraphic"/></filter></defs><g transform="matrix(1, 0, 0, 1, 0, 0)" filter="url(#b)"><path d="M26.9-35.5a24.048,24.048,0,0,1-5.15,1.8,24.048,24.048,0,0,1,5.15,1.8l18.15,9.35a3.67,3.67,0,0,1,1.65,1.4,3.584,3.584,0,0,1,.5,1.85v8.8L7.55-31.2v-5L47.2-56.85v8.8a3.454,3.454,0,0,1-.5,1.825A4.044,4.044,0,0,1,45.05-44.8ZM72.7.15A6.554,6.554,0,0,1,69.975,3.6,7.237,7.237,0,0,1,66.15,4.75H60.9l29.2-74.7a6.627,6.627,0,0,1,2.45-3.225A6.668,6.668,0,0,1,96.4-74.3h5.3ZM155.05-36.2v5L115.4-10.5v-8.8a3.584,3.584,0,0,1,.5-1.85,3.67,3.67,0,0,1,1.65-1.4L135.7-31.9a24.048,24.048,0,0,1,5.15-1.8,24.047,24.047,0,0,1-5.15-1.8l-18.15-9.3a4.044,4.044,0,0,1-1.65-1.425,3.453,3.453,0,0,1-.5-1.825v-8.8Z" transform="translate(16.45 94.3)" fill="url(#a)"/></g></svg>