<svg xmlns="http://www.w3.org/2000/svg" xmlns:xlink="http://www.w3.org/1999/xlink" width="176" height="176" viewBox="0 0 176 176"><defs><linearGradient id="a" x1="0.187" y1="0.121" x2="0.746" y2="0.945" gradientUnits="objectBoundingBox"><stop offset="0" stop-color="#0b2b22"/><stop offset="0.53" stop-color="#36c49f"/><stop offset="1"/></linearGradient><filter id="b" x="0" y="0" width="176" height="176" filterUnits="userSpaceOnUse"><feOffset dx="6" dy="10" input="SourceAlpha"/><feGaussianBlur stdDeviation="10" result="c"/><feFlood flood-opacity="0.502"/><feComposite operator="in" in2="c"/><feComposite in="SourceGraphic"/></filter></defs><g transform="translate(18.036 14.036)"><g transform="matrix(1, 0, 0, 1, -18.04, -14.04)" filter="url(#b)"><path d="M16.988,99.014A58,58,0,0,1,58,0a61.485,61.485,0,0,1,41.01,15.1C109.965,24.836,116,37.789,116,51.561A32.258,32.258,0,0,1,83.78,83.781H83.4L53.183,60.367l8.471,50.352,5.97-3.441A9.613,9.613,0,0,1,58,116,57.623,57.623,0,0,1,16.988,99.014ZM83.78,48.338a9.666,9.666,0,1,0,9.666-9.672A9.676,9.676,0,0,0,83.78,48.338Zm-70.891,0a9.666,9.666,0,1,0,9.666-9.672A9.676,9.676,0,0,0,12.888,48.338ZM64.448,22.557a9.666,9.666,0,1,0,9.666-9.668A9.676,9.676,0,0,0,64.448,22.557Zm-32.227,0a9.666,9.666,0,1,0,9.666-9.668A9.676,9.676,0,0,0,32.221,22.557Zm41.419,78.172-10.5,6.061-6.9-41L89.5,91.568l-9.446,5.449,7.185,12.441-6.425,3.7Z" transform="translate(24 20)" fill="url(#a)"/></g></g></svg>