<svg xmlns="http://www.w3.org/2000/svg" xmlns:xlink="http://www.w3.org/1999/xlink" width="190" height="175.652" viewBox="0 0 190 175.652"><defs><linearGradient id="a" x1="0.192" y1="0.13" x2="0.838" y2="0.954" gradientUnits="objectBoundingBox"><stop offset="0" stop-color="#0b2b22"/><stop offset="0.53" stop-color="#36c49f"/><stop offset="1"/></linearGradient><filter id="b" x="0" y="0" width="190" height="175.652" filterUnits="userSpaceOnUse"><feOffset dx="6" dy="10" input="SourceAlpha"/><feGaussianBlur stdDeviation="10" result="c"/><feFlood flood-opacity="0.502"/><feComposite operator="in" in2="c"/><feComposite in="SourceGraphic"/></filter></defs><g transform="matrix(1, 0, 0, 1, 0, 0)" filter="url(#b)"><path d="M20.236,38.663c6.09-4.732,11.141-1.469,17.884,6.338.757.881,1.775-.15,2.356-.653s9.47-8.518,9.908-8.883a1.272,1.272,0,0,0,.268-1.906Q48.175,30.5,45.8,27.352C34,11.916,78.083,1.447,71.315,1.284c-3.446-.091-17.27-.255-19.339-.026C43.6,2.139,33.087,9.964,27.794,13.613a66.216,66.216,0,0,0-9.934,7.9c-1.958,1.71-.313,5.659-3.864,8.772-3.753,3.283-6.1.8-8.27,2.7C4.649,33.944,1.634,36.2.772,36.953a2.116,2.116,0,0,0-.137,3.074s8.25,9.112,8.942,9.921,2.552,1.488,3.7.463S17.4,46.8,17.9,46.345c.509-.431-.326-5.62,2.337-7.682Zm37.255,3.374a1.672,1.672,0,0,0-2.591-.189L45.54,50.02a1.886,1.886,0,0,0-.176,2.611L99.5,114.238a3.468,3.468,0,0,0,4.9.346l6.331-5.306a3.524,3.524,0,0,0,.339-4.947Zm72.181-26.218c-.483-3.224-2.154-2.552-3.022-1.188s-4.706,7.193-6.285,9.829c-1.566,2.611-5.43,7.774-12.623,2.676-7.493-5.293-4.889-8.988-3.583-11.474s5.339-9.51,5.92-10.378a1.752,1.752,0,0,0-2.421-2.369c-2.33,1.07-16.467,6.69-18.425,14.751-2,8.2,1.677,15.527-5.548,22.8l-8.766,9.138,8.8,10.221,10.8-10.247c2.572-2.585,8.067-5.1,13.041-3.962,10.658,2.408,16.474-1.593,19.979-8.211,3.146-5.913,2.624-18.367,2.134-21.591ZM17.651,105a3.511,3.511,0,0,0,0,4.947l6.207,6.07c1.358,1.364,3.511.79,4.869-.574L60.754,83.953l-9.81-11.187L17.651,105Z" transform="translate(23.96 18.86)" fill="url(#a)"/></g></svg>