<svg xmlns="http://www.w3.org/2000/svg" xmlns:xlink="http://www.w3.org/1999/xlink" width="193.332" height="160" viewBox="0 0 193.332 160"><defs><linearGradient id="a" x1="0.154" y1="0.031" x2="0.944" y2="0.961" gradientUnits="objectBoundingBox"><stop offset="0" stop-color="#0b2b22"/><stop offset="0.53" stop-color="#36c49f"/><stop offset="1"/></linearGradient><filter id="b" x="0" y="0" width="193.332" height="160" filterUnits="userSpaceOnUse"><feOffset dx="6" dy="10" input="SourceAlpha"/><feGaussianBlur stdDeviation="10" result="c"/><feFlood flood-opacity="0.502"/><feComposite operator="in" in2="c"/><feComposite in="SourceGraphic"/></filter></defs><g transform="matrix(1, 0, 0, 1, 0, 0)" filter="url(#b)"><path d="M443.312-7775.383c3.277-17.108,10.951-45.165,30.388-44.611,12.563.357,9.733,13.251,30.984,11.152.3.453,5.123.453,5.423,0,21.251,2.1,18.419-10.795,30.984-11.152,19.437-.552,27.111,27.5,30.388,44.611h0c4.177,21.814,5.778,63.181-17.878,54-2.75-1.067-33.8-20.02-37.537-20.02h-17.34c-3.735,0-34.784,18.958-37.537,20.02a18.32,18.32,0,0,1-6.559,1.381C437.136-7720.006,439.549-7755.741,443.312-7775.383ZM485.834-7770l-.523.134a10.6,10.6,0,0,0-7.535,7.464l-.178.771a10.334,10.334,0,0,0-.182,1.891,10.336,10.336,0,0,0,.182,1.892l.188.812a10.6,10.6,0,0,0,7.525,7.424l.735.174a10.711,10.711,0,0,0,2.024.2,10.716,10.716,0,0,0,2.024-.2l.661-.156a10.6,10.6,0,0,0,7.6-7.441l.114-.436h0a10.413,10.413,0,0,0,.255-2.268,10.344,10.344,0,0,0-.257-2.266l-.1-.4a10.6,10.6,0,0,0-7.609-7.483l-.449-.114a10.81,10.81,0,0,0-2.236-.236A10.8,10.8,0,0,0,485.834-7770Zm31.312,9.577a9.65,9.65,0,0,0,9.721,9.577h0a9.65,9.65,0,0,0,9.722-9.578,9.65,9.65,0,0,0-9.722-9.577A9.65,9.65,0,0,0,517.146-7760.425Zm22-12.9a3.8,3.8,0,0,0,3.826,3.77h0a3.8,3.8,0,0,0,3.826-3.771,3.8,3.8,0,0,0-3.826-3.77A3.8,3.8,0,0,0,539.149-7773.324ZM461-7784.306h0a9.663,9.663,0,0,0,9.735,9.589,9.663,9.663,0,0,0,9.735-9.59,9.663,9.663,0,0,0-9.735-9.59A9.663,9.663,0,0,0,461-7784.306Zm85.8,3.444a3.8,3.8,0,0,0,3.826,3.77h0a3.8,3.8,0,0,0,3.826-3.77,3.8,3.8,0,0,0-3.827-3.77A3.8,3.8,0,0,0,546.8-7780.861Zm-15.3,0a3.8,3.8,0,0,0,3.826,3.771,3.8,3.8,0,0,0,3.826-3.771,3.8,3.8,0,0,0-3.826-3.769A3.8,3.8,0,0,0,531.5-7780.862Zm7.652-7.538a3.8,3.8,0,0,0,3.826,3.77,3.8,3.8,0,0,0,3.826-3.77,3.8,3.8,0,0,0-3.826-3.77A3.8,3.8,0,0,0,539.149-7788.4Zm-48.392,31.361h7.137a10.158,10.158,0,0,1-7.137,6.988Zm-12.507,0h7.063v6.971A10.159,10.159,0,0,1,478.249-7757.039Zm19.655-5.367h-7.148v-7.029a10.156,10.156,0,0,1,7.149,7.029Zm-19.666,0a10.153,10.153,0,0,1,7.075-7.01v7.01Zm7.075-7.011h0Z" transform="translate(-416.63 7840)" fill="url(#a)"/></g></svg>