<svg xmlns="http://www.w3.org/2000/svg" xmlns:xlink="http://www.w3.org/1999/xlink" width="200" height="200" viewBox="0 0 200 200"><defs><linearGradient id="a" x1="0.442" y1="0.27" x2="0.808" y2="0.542" gradientUnits="objectBoundingBox"><stop offset="0" stop-color="#0b2b22"/><stop offset="0.53" stop-color="#36c49f"/><stop offset="1"/></linearGradient><filter id="b" x="0" y="0" width="200" height="200" filterUnits="userSpaceOnUse"><feOffset dx="6" dy="10" input="SourceAlpha"/><feGaussianBlur stdDeviation="10" result="c"/><feFlood flood-opacity="0.502"/><feComposite operator="in" in2="c"/><feComposite in="SourceGraphic"/></filter></defs><g transform="matrix(1, 0, 0, 1, 0, 0)" filter="url(#b)"><path d="M2452.121-7740.6a17.481,17.481,0,0,1-.761-23.911h0l50.18-58.836a48.835,48.835,0,0,0,12.389,20.939,48.822,48.822,0,0,0,20.939,12.389l-58.835,50.182a17.424,17.424,0,0,1-11.55,4.357A17.426,17.426,0,0,1,2452.121-7740.6Zm30.9-38.321,7.417,7.417,14.834-14.833-7.417-7.417Zm38.321-30.9a38.458,38.458,0,0,1-9.253-39.488c.064.146.122.29.188.438,3.991,8.979,11.161,18.9,20.19,27.925s18.946,16.2,27.926,20.19c.148.065.291.124.438.188a38.57,38.57,0,0,1-12.3,2.01A38.341,38.341,0,0,1,2521.346-7809.827Zm43.311-.521c-7.831-3.48-16.628-9.88-24.769-18.021s-14.541-16.937-18.021-24.769a26.452,26.452,0,0,1-2.516-8.929q.949-1.1,1.995-2.151a38.461,38.461,0,0,1,54.391,0,38.46,38.46,0,0,1,0,54.391q-1.047,1.046-2.152,2A26.443,26.443,0,0,1,2564.656-7810.348Z" transform="translate(-2423 7895.48)" fill="url(#a)"/></g></svg>