<svg xmlns="http://www.w3.org/2000/svg" xmlns:xlink="http://www.w3.org/1999/xlink" width="188.872" height="200" viewBox="0 0 188.872 200"><defs><linearGradient id="a" x1="0.178" y1="0.273" x2="0.875" y2="0.812" gradientUnits="objectBoundingBox"><stop offset="0" stop-color="#0b2b22"/><stop offset="0.53" stop-color="#36c49f"/><stop offset="1"/></linearGradient><filter id="b" x="0" y="0" width="188.872" height="200" filterUnits="userSpaceOnUse"><feOffset dx="6" dy="10" input="SourceAlpha"/><feGaussianBlur stdDeviation="10" result="c"/><feFlood flood-opacity="0.502"/><feComposite operator="in" in2="c"/><feComposite in="SourceGraphic"/></filter></defs><g transform="translate(22.198 20)"><g transform="matrix(1, 0, 0, 1, -22.2, -20)" filter="url(#b)"><path d="M121.17,59.261h-4.113v-5.78a16.929,16.929,0,0,0-16.97-16.852H72.376V22.765a12.205,12.205,0,1,0-12.276,0V36.629H32.431A16.8,16.8,0,0,0,15.61,53.481v5.78H11.346a9.613,9.613,0,0,0-9.544,9.6V89.4a9.581,9.581,0,0,0,9.544,9.556H15.61v5.826a16.758,16.758,0,0,0,16.821,16.8h7.917v8.9A9.547,9.547,0,0,0,49.9,140H82.618a9.51,9.51,0,0,0,9.51-9.51v-8.9h7.96a16.887,16.887,0,0,0,16.97-16.806V98.959h4.113a9.544,9.544,0,0,0,9.5-9.556V68.861A9.578,9.578,0,0,0,121.17,59.261ZM29.217,65.677A11.171,11.171,0,1,1,40.391,76.848,11.172,11.172,0,0,1,29.217,65.677ZM81.476,106.44H51.044a9.109,9.109,0,1,1,0-18.217H81.479a9.109,9.109,0,1,1,0,18.217ZM92.128,76.848A11.171,11.171,0,1,1,103.3,65.677,11.17,11.17,0,0,1,92.128,76.848Z" transform="translate(22.2 20)" fill="url(#a)"/></g></g></svg>